<svg width="21" height="22" viewBox="0 0 21 22" fill="none" xmlns="http://www.w3.org/2000/svg">
<path fill-rule="evenodd" clip-rule="evenodd" d="M10.5 0.583374C6.57188 0.583374 4.60729 0.583374 3.3875 1.80421C2.27917 2.9115 2.17709 4.63129 2.16667 7.87504H1.125C0.848735 7.87504 0.583783 7.98479 0.388433 8.18014C0.193083 8.37549 0.0833359 8.64044 0.0833359 8.91671V9.95837C0.0833359 10.1201 0.120987 10.2796 0.193307 10.4242C0.265628 10.5689 0.370632 10.6947 0.500003 10.7917L2.16667 12.0417C2.17709 15.2855 2.27917 17.0052 3.3875 18.1125C3.63959 18.3657 3.92292 18.5657 4.25 18.724V20.375C4.25 20.6513 4.35975 20.9163 4.5551 21.1116C4.75045 21.307 5.0154 21.4167 5.29167 21.4167H6.85417C7.13044 21.4167 7.39539 21.307 7.59074 21.1116C7.78609 20.9163 7.89584 20.6513 7.89584 20.375V19.3146C8.65313 19.3334 9.51459 19.3334 10.5 19.3334C11.4854 19.3334 12.3469 19.3334 13.1042 19.3146V20.375C13.1042 20.6513 13.2139 20.9163 13.4093 21.1116C13.6046 21.307 13.8696 21.4167 14.1458 21.4167H15.7083C15.9846 21.4167 16.2496 21.307 16.4449 21.1116C16.6403 20.9163 16.75 20.6513 16.75 20.375V18.724C17.0699 18.5703 17.3616 18.3636 17.6125 18.1125C18.7208 17.0052 18.824 15.2855 18.8333 12.0417L20.5 10.7917C20.6294 10.6947 20.7344 10.5689 20.8067 10.4242C20.879 10.2796 20.9167 10.1201 20.9167 9.95837V8.91671C20.9167 8.64044 20.8069 8.37549 20.6116 8.18014C20.4162 7.98479 20.1513 7.87504 19.875 7.87504H18.8333C18.8229 4.63129 18.7208 2.9115 17.6125 1.80421C16.3927 0.583374 14.4281 0.583374 10.5 0.583374ZM3.72917 8.39587C3.72917 9.86879 3.72917 10.6053 4.1875 11.0625C4.64479 11.5209 5.38125 11.5209 6.85417 11.5209H14.1458C15.6188 11.5209 16.3552 11.5209 16.8125 11.0625C17.2708 10.6053 17.2708 9.86879 17.2708 8.39587V5.79171C17.2708 4.31879 17.2708 3.58233 16.8125 3.12504C16.3563 2.66671 15.6198 2.66671 14.1458 2.66671H6.85417C5.38125 2.66671 4.64479 2.66671 4.1875 3.12504C3.72917 3.58129 3.72917 4.31775 3.72917 5.79171V8.39587ZM4.51042 15.1667C4.51042 14.9595 4.59273 14.7608 4.73924 14.6143C4.88576 14.4678 5.08447 14.3855 5.29167 14.3855H6.85417C7.06137 14.3855 7.26008 14.4678 7.4066 14.6143C7.55311 14.7608 7.63542 14.9595 7.63542 15.1667C7.63542 15.3739 7.55311 15.5726 7.4066 15.7191C7.26008 15.8656 7.06137 15.948 6.85417 15.948H5.29167C5.08447 15.948 4.88576 15.8656 4.73924 15.7191C4.59273 15.5726 4.51042 15.3739 4.51042 15.1667ZM16.4896 15.1667C16.4896 14.9595 16.4073 14.7608 16.2608 14.6143C16.1143 14.4678 15.9155 14.3855 15.7083 14.3855H14.1458C13.9386 14.3855 13.7399 14.4678 13.5934 14.6143C13.4469 14.7608 13.3646 14.9595 13.3646 15.1667C13.3646 15.3739 13.4469 15.5726 13.5934 15.7191C13.7399 15.8656 13.9386 15.948 14.1458 15.948H15.7083C15.9155 15.948 16.1143 15.8656 16.2608 15.7191C16.4073 15.5726 16.4896 15.3739 16.4896 15.1667Z" fill="#23262F"/>
</svg>
