<svg width="36" height="36" viewBox="0 0 36 36" fill="none" xmlns="http://www.w3.org/2000/svg">
<path d="M16.125 18C16.125 18.4973 16.3225 18.9742 16.6742 19.3258C17.0258 19.6775 17.5027 19.875 18 19.875C18.4973 19.875 18.9742 19.6775 19.3258 19.3258C19.6774 18.9742 19.875 18.4973 19.875 18C19.875 17.5027 19.6774 17.0258 19.3258 16.6742C18.9742 16.3225 18.4973 16.125 18 16.125C17.5027 16.125 17.0258 16.3225 16.6742 16.6742C16.3225 17.0258 16.125 17.5027 16.125 18ZM23.9375 18C23.9375 18.4973 24.135 18.9742 24.4867 19.3258C24.8383 19.6775 25.3152 19.875 25.8125 19.875C26.3098 19.875 26.7867 19.6775 27.1383 19.3258C27.4899 18.9742 27.6875 18.4973 27.6875 18C27.6875 17.5027 27.4899 17.0258 27.1383 16.6742C26.7867 16.3225 26.3098 16.125 25.8125 16.125C25.3152 16.125 24.8383 16.3225 24.4867 16.6742C24.135 17.0258 23.9375 17.5027 23.9375 18ZM8.31248 18C8.31248 18.4973 8.51002 18.9742 8.86165 19.3258C9.21328 19.6775 9.6902 19.875 10.1875 19.875C10.6848 19.875 11.1617 19.6775 11.5133 19.3258C11.8649 18.9742 12.0625 18.4973 12.0625 18C12.0625 17.5027 11.8649 17.0258 11.5133 16.6742C11.1617 16.3225 10.6848 16.125 10.1875 16.125C9.6902 16.125 9.21328 16.3225 8.86165 16.6742C8.51002 17.0258 8.31248 17.5027 8.31248 18ZM34.1406 11.2188C33.2578 9.12109 31.9922 7.23828 30.3789 5.62109C28.7769 4.01327 26.8751 2.73524 24.7812 1.85938C22.6328 0.957031 20.3515 0.5 18 0.5H17.9219C15.5547 0.511719 13.2617 0.980469 11.1054 1.90234C9.0295 2.78719 7.14554 4.06749 5.55857 5.67188C3.96092 7.28516 2.70701 9.16016 1.83982 11.25C0.941384 13.4141 0.488259 15.7148 0.499977 18.082C0.513232 20.7948 1.15502 23.4676 2.37498 25.8906V31.8281C2.37498 32.3047 2.56429 32.7617 2.90127 33.0987C3.23825 33.4357 3.69529 33.625 4.17185 33.625H10.1133C12.5363 34.845 15.2091 35.4867 17.9219 35.5H18.0039C20.3437 35.5 22.6133 35.0469 24.75 34.1602C26.8333 33.2947 28.728 32.0316 30.3281 30.4414C31.9414 28.8438 33.2109 26.9766 34.0976 24.8945C35.0195 22.7383 35.4883 20.4453 35.5 18.0781C35.5117 15.6992 35.0508 13.3906 34.1406 11.2188ZM28.2383 28.3281C25.5 31.0391 21.8672 32.5312 18 32.5312H17.9336C15.5781 32.5195 13.2383 31.9336 11.1719 30.832L10.8437 30.6562H5.34373V25.1562L5.16795 24.8281C4.06638 22.7617 3.48045 20.4219 3.46873 18.0664C3.4531 14.1719 4.94138 10.5156 7.67185 7.76172C10.3984 5.00781 14.0429 3.48438 17.9375 3.46875H18.0039C19.957 3.46875 21.8515 3.84766 23.6367 4.59766C25.3789 5.32812 26.9414 6.37891 28.2851 7.72266C29.625 9.0625 30.6797 10.6289 31.4101 12.3711C32.1679 14.1758 32.5469 16.0898 32.539 18.0664C32.5156 21.957 30.9883 25.6016 28.2383 28.3281Z" fill="url(#paint0_linear_1_53)"/>
<defs>
<linearGradient id="paint0_linear_1_53" x1="0.499756" y1="0.5" x2="37.4838" y2="2.73938" gradientUnits="userSpaceOnUse">
<stop stop-color="#40D7DE"/>
<stop offset="1" stop-color="#28ADE5"/>
</linearGradient>
</defs>
</svg>
