<svg width="14" height="21" viewBox="0 0 14 21" fill="none" xmlns="http://www.w3.org/2000/svg">
<path d="M0.75 3C0.75 2.33696 1.01339 1.70107 1.48223 1.23223C1.95107 0.763392 2.58696 0.5 3.25 0.5L10.75 0.5C11.413 0.5 12.0489 0.763392 12.5178 1.23223C12.9866 1.70107 13.25 2.33696 13.25 3V18C13.25 18.663 12.9866 19.2989 12.5178 19.7678C12.0489 20.2366 11.413 20.5 10.75 20.5H3.25C2.58696 20.5 1.95107 20.2366 1.48223 19.7678C1.01339 19.2989 0.75 18.663 0.75 18V3ZM8.25 16.75C8.25 16.4185 8.1183 16.1005 7.88388 15.8661C7.64946 15.6317 7.33152 15.5 7 15.5C6.66848 15.5 6.35054 15.6317 6.11612 15.8661C5.8817 16.1005 5.75 16.4185 5.75 16.75C5.75 17.0815 5.8817 17.3995 6.11612 17.6339C6.35054 17.8683 6.66848 18 7 18C7.33152 18 7.64946 17.8683 7.88388 17.6339C8.1183 17.3995 8.25 17.0815 8.25 16.75Z" fill="white"/>
</svg>
