<svg width="23" height="17" viewBox="0 0 23 17" fill="none" xmlns="http://www.w3.org/2000/svg">
<path d="M6.29169 9.04171C8.02085 9.04171 9.41669 7.64587 9.41669 5.91671C9.41669 4.18754 8.02085 2.79171 6.29169 2.79171C4.56252 2.79171 3.16669 4.18754 3.16669 5.91671C3.16669 7.64587 4.56252 9.04171 6.29169 9.04171ZM18.7917 2.79171H12.4584C11.3538 2.79171 10.4584 3.68714 10.4584 4.79171V5.91671C10.4584 8.2179 8.59287 10.0834 6.29169 10.0834C3.9905 10.0834 2.12502 8.2179 2.12502 5.91671V1.75004C2.12502 1.17474 1.65865 0.708374 1.08335 0.708374C0.508057 0.708374 0.041687 1.17474 0.041687 1.75004V15.2917C0.041687 15.867 0.508057 16.3334 1.08335 16.3334C1.65865 16.3334 2.12502 15.867 2.12502 15.2917V13.2084H20.875V15.2917C20.875 15.867 21.3414 16.3334 21.9167 16.3334C22.492 16.3334 22.9584 15.867 22.9584 15.2917V6.95837C22.9584 4.65629 21.0938 2.79171 18.7917 2.79171Z" fill="#23262F"/>
</svg>
