<svg width="34" height="34" viewBox="0 0 34 34" fill="none" xmlns="http://www.w3.org/2000/svg">
<path d="M18.7134 0.333374C20.5884 0.338374 21.54 0.348374 22.3617 0.371707L22.685 0.383374C23.0584 0.396707 23.4267 0.413374 23.8717 0.433374C25.645 0.516707 26.855 0.796708 27.9167 1.20837C29.0167 1.63171 29.9434 2.20504 30.87 3.13004C31.7175 3.9632 32.3733 4.97102 32.7917 6.08337C33.2034 7.14504 33.4834 8.35504 33.5667 10.13C33.5867 10.5734 33.6034 10.9417 33.6167 11.3167L33.6267 11.64C33.6517 12.46 33.6617 13.4117 33.665 15.2867L33.6667 16.53V18.7134C33.6708 19.929 33.658 21.1447 33.6284 22.36L33.6184 22.6834C33.605 23.0584 33.5884 23.4267 33.5684 23.87C33.485 25.645 33.2017 26.8534 32.7917 27.9167C32.3745 29.0297 31.7186 30.0377 30.87 30.87C30.0366 31.7172 29.0289 32.373 27.9167 32.7917C26.855 33.2034 25.645 33.4834 23.8717 33.5667C23.4762 33.5853 23.0807 33.602 22.685 33.6167L22.3617 33.6267C21.54 33.65 20.5884 33.6617 18.7134 33.665L17.47 33.6667H15.2884C14.0721 33.6709 12.8559 33.6581 11.64 33.6284L11.3167 33.6184C10.921 33.6034 10.5255 33.5862 10.13 33.5667C8.35669 33.4834 7.14669 33.2034 6.08336 32.7917C4.97114 32.374 3.96372 31.7181 3.13169 30.87C2.28343 30.0372 1.62707 29.0293 1.20836 27.9167C0.796693 26.855 0.516692 25.645 0.433359 23.87C0.41479 23.4746 0.398124 23.079 0.383359 22.6834L0.375026 22.36C0.344313 21.1447 0.330422 19.9291 0.333359 18.7134V15.2867C0.328708 14.071 0.340931 12.8554 0.370026 11.64L0.381693 11.3167C0.395026 10.9417 0.411692 10.5734 0.431692 10.13C0.515026 8.35504 0.795026 7.14671 1.20669 6.08337C1.62522 4.96988 2.28289 3.96175 3.13336 3.13004C3.96518 2.2825 4.97193 1.62669 6.08336 1.20837C7.14669 0.796708 8.35503 0.516707 10.13 0.433374C10.5734 0.413374 10.9434 0.396707 11.3167 0.383374L11.64 0.373374C12.8553 0.343762 14.071 0.330983 15.2867 0.335041L18.7134 0.333374ZM17 8.66671C14.7899 8.66671 12.6703 9.54468 11.1075 11.1075C9.54467 12.6703 8.66669 14.7899 8.66669 17C8.66669 19.2102 9.54467 21.3298 11.1075 22.8926C12.6703 24.4554 14.7899 25.3334 17 25.3334C19.2102 25.3334 21.3298 24.4554 22.8926 22.8926C24.4554 21.3298 25.3334 19.2102 25.3334 17C25.3334 14.7899 24.4554 12.6703 22.8926 11.1075C21.3298 9.54468 19.2102 8.66671 17 8.66671ZM17 12C17.6566 11.9999 18.3068 12.1292 18.9135 12.3803C19.5202 12.6315 20.0714 12.9997 20.5358 13.4639C21.0002 13.9281 21.3686 14.4793 21.6199 15.0859C21.8713 15.6924 22.0007 16.3426 22.0009 16.9992C22.001 17.6558 21.8717 18.306 21.6206 18.9127C21.3694 19.5194 21.0012 20.0706 20.537 20.535C20.0728 20.9994 19.5216 21.3677 18.915 21.6191C18.3085 21.8705 17.6583 21.9999 17.0017 22C15.6756 22 14.4038 21.4733 13.4662 20.5356C12.5285 19.5979 12.0017 18.3261 12.0017 17C12.0017 15.674 12.5285 14.4022 13.4662 13.4645C14.4038 12.5268 15.6756 12 17.0017 12M25.7517 6.16671C25.1992 6.16671 24.6693 6.3862 24.2786 6.7769C23.8879 7.1676 23.6684 7.69751 23.6684 8.25004C23.6684 8.80258 23.8879 9.33248 24.2786 9.72318C24.6693 10.1139 25.1992 10.3334 25.7517 10.3334C26.3042 10.3334 26.8341 10.1139 27.2248 9.72318C27.6155 9.33248 27.835 8.80258 27.835 8.25004C27.835 7.69751 27.6155 7.1676 27.2248 6.7769C26.8341 6.3862 26.3042 6.16671 25.7517 6.16671Z" fill="#23262F"/>
</svg>
