<svg width="19" height="22" viewBox="0 0 19 22" fill="none" xmlns="http://www.w3.org/2000/svg">
<path d="M10.2312 0.786482L17.5229 3.52086C17.9201 3.66975 18.2624 3.93633 18.504 4.28498C18.7456 4.63362 18.8751 5.04772 18.875 5.4719V11.0584C18.875 12.7994 18.3902 14.5061 17.4749 15.9872C16.5596 17.4682 15.25 18.6651 13.6927 19.4438L10.199 21.1896C9.98195 21.2981 9.74264 21.3547 9.5 21.3547C9.25736 21.3547 9.01805 21.2981 8.80104 21.1896L5.30729 19.4427C3.75004 18.6641 2.44038 17.4672 1.52507 15.9861C0.609762 14.5051 0.124963 12.7984 0.125 11.0573V5.47294C0.124735 5.04858 0.254068 4.63426 0.495696 4.2854C0.737324 3.93655 1.07972 3.66981 1.47708 3.52086L8.76875 0.786482C9.24023 0.609747 9.75977 0.609747 10.2312 0.786482ZM9.5 6.83336C9.24486 6.83339 8.99861 6.92706 8.80795 7.0966C8.61728 7.26614 8.49548 7.49976 8.46562 7.75315L8.45833 7.87502V9.95836H6.375C6.1095 9.95865 5.85413 10.0603 5.66107 10.2426C5.46802 10.4248 5.35184 10.6739 5.33628 10.939C5.32072 11.204 5.40695 11.465 5.57736 11.6686C5.74777 11.8722 5.98948 12.003 6.25313 12.0344L6.375 12.0417H8.45833V14.125C8.45863 14.3905 8.56029 14.6459 8.74255 14.839C8.92481 15.032 9.17391 15.1482 9.43895 15.1637C9.704 15.1793 9.96498 15.0931 10.1686 14.9227C10.3722 14.7523 10.503 14.5105 10.5344 14.2469L10.5417 14.125V12.0417H12.625C12.8905 12.0414 13.1459 11.9397 13.3389 11.7575C13.532 11.5752 13.6482 11.3261 13.6637 11.0611C13.6793 10.796 13.593 10.535 13.4226 10.3314C13.2522 10.1279 13.0105 9.99701 12.7469 9.96565L12.625 9.95836H10.5417V7.87502C10.5417 7.59876 10.4319 7.33381 10.2366 7.13845C10.0412 6.9431 9.77627 6.83336 9.5 6.83336Z" fill="#23262F"/>
</svg>
