<svg width="32" height="26" viewBox="0 0 32 26" fill="none" xmlns="http://www.w3.org/2000/svg">
<path d="M32 6.746V21C32 22.3261 31.4732 23.5979 30.5355 24.5355C29.5979 25.4732 28.3261 26 27 26H5C3.67392 26 2.40215 25.4732 1.46447 24.5355C0.526784 23.5979 0 22.3261 0 21V6.746L15.492 15.862C15.6459 15.9528 15.8213 16.0006 16 16.0006C16.1787 16.0006 16.3541 15.9528 16.508 15.862L32 6.746ZM27 6.19054e-08C28.2303 -0.000193432 29.4175 0.453213 30.3344 1.27348C31.2514 2.09375 31.8337 3.22328 31.97 4.446L16 13.84L0.0300002 4.446C0.166317 3.22328 0.748648 2.09375 1.66559 1.27348C2.58253 0.453213 3.76971 -0.000193432 5 6.19054e-08H27Z" fill="#23262F"/>
</svg>
