<svg width="34" height="34" viewBox="0 0 34 34" fill="none" xmlns="http://www.w3.org/2000/svg">
<path d="M16.99 0.333374C13.6936 0.333374 10.4713 1.31086 7.73047 3.14221C4.98965 4.97357 2.85345 7.57655 1.59199 10.622C0.330525 13.6674 0.000468999 17.0185 0.643556 20.2515C1.28664 23.4846 2.87399 26.4543 5.20486 28.7852C7.53574 31.116 10.5055 32.7034 13.7385 33.3465C16.9715 33.9896 20.3226 33.6595 23.368 32.398C26.4135 31.1366 29.0164 29.0004 30.8478 26.2595C32.6792 23.5187 33.6566 20.2964 33.6566 17C33.6566 14.8113 33.2255 12.6441 32.388 10.622C31.5504 8.59989 30.3227 6.76257 28.7751 5.21493C27.2274 3.66728 25.3901 2.43963 23.368 1.60205C21.3459 0.76447 19.1787 0.333374 16.99 0.333374ZM22.29 25.5867C22.2278 25.7424 22.133 25.883 22.0119 25.999C21.8909 26.1151 21.7464 26.2039 21.5883 26.2594C21.4301 26.315 21.2618 26.3361 21.0948 26.3212C20.9278 26.3064 20.7659 26.256 20.62 26.1734L16.095 22.6567L13.1916 25.3367C13.1243 25.3865 13.0454 25.4185 12.9624 25.4299C12.8794 25.4412 12.7949 25.4315 12.7166 25.4017L13.2733 20.42L13.29 20.435L13.3016 20.3367C13.3016 20.3367 21.4433 12.9234 21.775 12.6084C22.1116 12.2934 22 12.225 22 12.225C22.02 11.8417 21.3983 12.225 21.3983 12.225L10.61 19.165L6.11831 17.635C6.11831 17.635 5.42831 17.3884 5.36331 16.8434C5.29498 16.3034 6.13998 16.01 6.13998 16.01L24.0016 8.91337C24.0016 8.91337 25.47 8.26004 25.47 9.34337L22.29 25.5867Z" fill="#23262F"/>
</svg>
