<svg width="25" height="25" viewBox="0 0 25 25" fill="none" xmlns="http://www.w3.org/2000/svg">
<path d="M18.1099 3.96049H6.88989C6.35946 3.96049 5.85075 4.17121 5.47568 4.54628C5.10061 4.92135 4.88989 5.43006 4.88989 5.96049V22.6105C4.88989 23.1409 5.10061 23.6496 5.47568 24.0247C5.85075 24.3998 6.35946 24.6105 6.88989 24.6105H18.1099C18.6403 24.6105 19.149 24.3998 19.5241 24.0247C19.8992 23.6496 20.1099 23.1409 20.1099 22.6105V5.96049C20.1099 5.43006 19.8992 4.92135 19.5241 4.54628C19.149 4.17121 18.6403 3.96049 18.1099 3.96049ZM15.7599 20.7605H9.23989C9.10728 20.7605 8.98011 20.7078 8.88634 20.614C8.79257 20.5203 8.73989 20.3931 8.73989 20.2605C8.73989 20.1279 8.79257 20.0007 8.88634 19.9069C8.98011 19.8132 9.10728 19.7605 9.23989 19.7605H15.7599C15.8925 19.7605 16.0197 19.8132 16.1134 19.9069C16.2072 20.0007 16.2599 20.1279 16.2599 20.2605C16.2599 20.3931 16.2072 20.5203 16.1134 20.614C16.0197 20.7078 15.8925 20.7605 15.7599 20.7605ZM9.82989 18.6305C9.82989 18.4979 9.88257 18.3707 9.97634 18.2769C10.0701 18.1832 10.1973 18.1305 10.3299 18.1305H14.6699C14.8025 18.1305 14.9297 18.1832 15.0234 18.2769C15.1172 18.3707 15.1699 18.4979 15.1699 18.6305C15.1699 18.7631 15.1172 18.8903 15.0234 18.984C14.9297 19.0778 14.8025 19.1305 14.6699 19.1305H10.3299C10.1973 19.1305 10.0701 19.0778 9.97634 18.984C9.88257 18.8903 9.82989 18.7631 9.82989 18.6305ZM12.4999 15.9105C11.6391 15.9105 10.7977 15.6551 10.0821 15.1767C9.36656 14.6983 8.80901 14.0183 8.48007 13.2228C8.15112 12.4274 8.06557 11.5523 8.23422 10.7082C8.40288 9.86408 8.81817 9.089 9.42753 8.48104C10.0369 7.87308 10.8129 7.45958 11.6574 7.29286C12.5019 7.12615 13.3768 7.21372 14.1715 7.5445C14.9662 7.87527 15.6449 8.43438 16.1217 9.15105C16.5984 9.86771 16.8519 10.7097 16.8499 11.5705C16.8499 12.1413 16.7373 12.7064 16.5186 13.2337C16.2998 13.7609 15.9793 14.2397 15.5752 14.6429C15.1711 15.046 14.6915 15.3655 14.1638 15.583C13.6361 15.8005 13.0707 15.9118 12.4999 15.9105ZM15.7399 11.2105C15.4299 11.2105 15.0699 11.1305 14.6599 11.0905C14.6228 10.2958 14.4574 9.51231 14.1699 8.77049C14.6022 9.02838 14.9689 9.38288 15.2413 9.8062C15.5137 10.2295 15.6843 10.7102 15.7399 11.2105ZM15.7399 11.9305C15.684 12.4319 15.5121 12.9135 15.2379 13.337C14.9637 13.7605 14.5946 14.1143 14.1599 14.3705C14.4566 13.6275 14.6257 12.8398 14.6599 12.0405C15.0699 12.0105 15.4299 11.9705 15.7399 11.9305ZM13.5699 12.1105C13.5287 12.8024 13.3591 13.4806 13.0699 14.1105C12.9663 14.3332 12.8202 14.5336 12.6399 14.7005C12.6082 14.7334 12.571 14.7605 12.5299 14.7805H12.4699C12.4288 14.7605 12.3916 14.7334 12.3599 14.7005C12.1803 14.5353 12.0372 14.3343 11.9399 14.1105C11.6426 13.4829 11.4695 12.8038 11.4299 12.1105H13.5699ZM13.5699 11.0405H11.4299C11.463 10.3302 11.6363 9.6335 11.9399 8.99049C12.0399 8.76821 12.1826 8.56774 12.3599 8.40049C12.3916 8.36759 12.4288 8.34051 12.4699 8.32049H12.5299C12.571 8.34051 12.6082 8.36759 12.6399 8.40049C12.8182 8.56911 12.964 8.76911 13.0699 8.99049C13.364 9.63279 13.5336 10.325 13.5699 11.0305V11.0405ZM10.8299 8.77049C10.5403 9.51863 10.3748 10.309 10.3399 11.1105C9.92989 11.1105 9.56989 11.1805 9.25989 11.2305C9.31247 10.7267 9.48173 10.242 9.75425 9.81501C10.0268 9.38799 10.3951 9.03037 10.8299 8.77049ZM10.8299 14.3705C10.3952 14.1143 10.0261 13.7605 9.75189 13.337C9.47765 12.9135 9.30578 12.4319 9.24989 11.9305C9.55989 11.9305 9.91989 12.0105 10.3299 12.0405C10.3673 12.8404 10.5397 13.6281 10.8399 14.3705H10.8299ZM7.06989 2.87049L14.2199 0.490494C14.5198 0.390953 14.839 0.363892 15.1514 0.411529C15.4638 0.459165 15.7604 0.580144 16.0171 0.76455C16.2737 0.948956 16.4829 1.19154 16.6277 1.47243C16.7725 1.75331 16.8486 2.0645 16.8499 2.38049V2.87049H7.06989Z" fill="#23262F"/>
</svg>
